# xmcd
#
# Track frame offsets:
#	187
#	13222
#	27670
#	38680
#	51735
#	67240
#	84152
#	96937
#	114640
#	127122
#	136962
#
# Disc length: 2027 seconds
#
# Revision: 3
# Processed by: cddbd v1.4PL0 Copyright (c) Steve Scherf et al.
# Submitted via: CDmax 1.9
#
DISCID=a307e90b
DTITLE=Kinky Friedman
DYEAR=1994
DGENRE=Country
TTITLE0=Rapid City, South Dakota
TTITLE1=Popeye the Sailor Man
TTITLE2=Homo Erectus
TTITLE3=Lover Please
TTITLE4=Wild Man From Borneo
TTITLE5=Before All Hell Breaks Loose
TTITLE6=Somethin's Wrong With the Beaver
TTITLE7=When the Lord Closes the Door (He Opens a Little Window)
TTITLE8=Miss Nickelodeon
TTITLE9=Autograph
TTITLE10=They Ain't makin' Jews Like Jesus Anymore
EXTD=
EXTT0=
EXTT1=
EXTT2=
EXTT3=
EXTT4=
EXTT5=
EXTT6=
EXTT7=
EXTT8=
EXTT9=
EXTT10=
PLAYORDER=
